<?xml version="1.0" encoding="UTF-8" standalone="no"?>
<svg width="25px" height="94px" viewBox="0 0 25 91" version="1.1" xmlns="http://www.w3.org/2000/svg" xmlns:xlink="http://www.w3.org/1999/xlink">

    <g id="Page-1" stroke="none" stroke-width="1" fill="none" fill-rule="evenodd">
        <g id="paperclip" fill="#B2B2B2">
            <path d="M24.35,38.569 L24.35,65.18 C24.35,65.289 24.354,65.399 24.347,65.507 C24.335,65.72 24.263,65.793 24.046,65.819 C23.992,65.826 23.937,65.825 23.882,65.825 C23.482,65.825 23.081,65.826 22.681,65.824 C22.608,65.824 22.535,65.823 22.464,65.81 C22.282,65.778 22.233,65.723 22.222,65.54 C22.216,65.431 22.219,65.322 22.219,65.213 C22.219,47.563 22.22,29.913 22.216,12.264 C22.216,11.16 22.095,10.067 21.754,9.01 C21.497,8.212 21.183,7.437 20.705,6.74 C20.491,6.427 20.297,6.099 20.071,5.796 C19.667,5.256 19.219,4.752 18.686,4.336 C18.172,3.935 17.653,3.533 17.099,3.192 C16.065,2.558 14.928,2.172 13.735,1.963 C13.098,1.852 12.454,1.824 11.807,1.864 C11.482,1.884 11.155,1.885 10.83,1.897 C10.159,1.921 9.52,2.103 8.886,2.301 C8.497,2.423 8.109,2.547 7.757,2.772 C7.549,2.905 7.301,2.976 7.073,3.08 C6.99,3.117 6.91,3.162 6.834,3.212 C6.282,3.575 5.733,3.938 5.233,4.378 C4.537,4.991 3.941,5.682 3.434,6.45 C2.558,7.778 2.025,9.236 1.855,10.821 C1.813,11.218 1.779,11.616 1.764,12.015 C1.755,12.259 1.801,12.504 1.801,12.749 C1.803,35.639 1.802,58.529 1.804,81.42 C1.804,82.602 2.084,83.723 2.578,84.796 C2.838,85.361 3.146,85.895 3.516,86.392 C4.018,87.067 4.623,87.641 5.292,88.151 C6.53,89.095 7.923,89.658 9.463,89.844 C11.047,90.035 12.583,89.834 14.049,89.182 C15.063,88.731 15.964,88.125 16.743,87.321 C17.272,86.775 17.756,86.204 18.133,85.546 C18.69,84.573 19.085,83.539 19.214,82.421 C19.281,81.836 19.321,81.244 19.321,80.655 C19.327,70.493 19.326,60.33 19.326,50.168 C19.326,43.837 19.328,37.506 19.324,31.176 C19.323,29.93 19.065,28.739 18.486,27.627 C18.233,27.141 17.928,26.69 17.57,26.276 C17.535,26.235 17.491,26.201 17.45,26.165 C17.206,25.951 16.956,25.751 16.756,25.482 C16.599,25.27 16.357,25.112 16.131,24.962 C15.187,24.335 14.159,23.914 13.031,23.754 C12.943,23.741 12.85,23.755 12.76,23.757 C12.706,23.758 12.644,23.778 12.599,23.759 C12.291,23.63 11.967,23.672 11.655,23.694 C11.14,23.73 10.625,23.784 10.121,23.921 C9.222,24.164 8.393,24.549 7.659,25.117 C7.296,25.398 6.971,25.727 6.633,26.039 C6.581,26.087 6.554,26.159 6.509,26.216 C6.45,26.291 6.387,26.363 6.321,26.433 C6.253,26.505 6.17,26.565 6.113,26.644 C5.446,27.563 4.981,28.571 4.795,29.696 C4.739,30.035 4.702,30.382 4.702,30.725 C4.697,42.125 4.698,53.524 4.698,64.924 C4.698,65.042 4.71,65.162 4.695,65.278 C4.672,65.462 4.799,65.713 4.533,65.8 C4.35,65.86 4.168,65.983 3.955,65.902 C3.93,65.893 3.899,65.884 3.875,65.891 C3.526,65.994 3.194,65.835 2.853,65.824 C2.626,65.817 2.582,65.769 2.57,65.549 C2.565,65.467 2.568,65.385 2.568,65.303 C2.568,53.794 2.567,42.285 2.569,30.777 C2.569,29.436 2.889,28.163 3.473,26.961 C3.711,26.472 3.984,25.997 4.275,25.536 C4.453,25.254 4.696,25.013 4.909,24.753 C5.012,24.627 5.112,24.499 5.213,24.372 C5.23,24.351 5.242,24.324 5.262,24.307 C5.667,23.972 6.048,23.6 6.484,23.312 C7.189,22.846 7.922,22.425 8.728,22.142 C9.436,21.894 10.158,21.716 10.899,21.62 C12.143,21.46 13.364,21.59 14.57,21.922 C15.845,22.273 16.979,22.895 18.002,23.719 C18.225,23.898 18.446,24.09 18.666,24.272 C19.002,24.551 19.197,24.929 19.475,25.245 C19.748,25.556 19.949,25.932 20.167,26.289 C20.786,27.306 21.144,28.419 21.318,29.589 C21.394,30.1 21.451,30.619 21.451,31.134 C21.458,47.801 21.459,64.469 21.45,81.136 C21.449,82.247 21.274,83.342 20.936,84.41 C20.642,85.337 20.23,86.202 19.724,87.027 C19.237,87.821 18.628,88.517 17.964,89.164 C17.686,89.436 17.387,89.691 17.075,89.923 C16.777,90.144 16.461,90.346 16.132,90.518 C15.601,90.795 15.063,91.062 14.511,91.292 C13.677,91.64 12.802,91.852 11.905,91.969 C11.518,92.019 11.132,92.084 10.744,92.115 C10.54,92.131 10.332,92.089 10.126,92.068 C9.837,92.039 9.549,92.008 9.261,91.973 C8.565,91.887 7.886,91.728 7.211,91.534 C6.692,91.385 6.21,91.155 5.73,90.925 C4.875,90.515 4.083,90.001 3.374,89.366 C3.3,89.3 3.221,89.235 3.135,89.186 C2.857,89.03 2.666,88.792 2.499,88.53 C2.47,88.484 2.441,88.437 2.403,88.398 C1.815,87.792 1.397,87.069 0.984,86.343 C0.591,85.653 0.291,84.922 0.081,84.155 C-0.082,83.558 -0.229,82.957 -0.27,82.337 C-0.301,81.866 -0.323,81.394 -0.324,80.922 C-0.327,57.904 -0.325,34.887 -0.33,11.869 C-0.33,10.327 -0.019,8.857 0.539,7.427 C0.976,6.307 1.584,5.285 2.315,4.34 C2.821,3.685 3.419,3.11 4.045,2.566 C4.686,2.009 5.397,1.553 6.141,1.15 C7.359,0.49 8.657,0.054 10.023,-0.172 C10.795,-0.299 11.574,-0.376 12.358,-0.336 C13.13,-0.296 13.897,-0.21 14.652,-0.036 C15.569,0.175 16.451,0.476 17.302,0.88 C17.919,1.173 18.495,1.529 19.067,1.899 C19.551,2.212 19.964,2.601 20.394,2.977 C20.828,3.356 21.219,3.773 21.563,4.225 C22.003,4.802 22.415,5.406 22.776,6.035 C23.418,7.155 23.864,8.358 24.094,9.631 C24.191,10.166 24.216,10.714 24.301,11.251 C24.391,11.822 24.346,12.393 24.346,12.964 C24.351,21.501 24.35,30.035 24.35,38.569 L24.35,38.569 Z" id="Shape"></path>
        </g>
    </g>
</svg>